<svg width="69.000000" height="60.000000" viewBox="0 0 69 60" fill="none" xmlns="http://www.w3.org/2000/svg" xmlns:xlink="http://www.w3.org/1999/xlink">
	<desc>
			Created with Pixso.
	</desc>
	<defs/>
	<path id="Vector" d="M36.07 14.6C35.68 14.48 35.46 14.07 35.57 13.69C36.92 9.17 41.11 5.85 46.1 5.85C46.5 5.85 46.83 6.17 46.83 6.58C46.83 6.98 46.5 7.31 46.1 7.31C41.92 7.31 38.17 10.1 36.98 14.1C36.86 14.49 36.46 14.71 36.07 14.6L36.07 14.6Z" fill="#483EA8" fill-opacity="1.000000" fill-rule="nonzero"/>
	<path id="Vector" d="M35.86 12.07Q35.52 12.81 35.29 13.6L35.29 13.6Q35.25 13.71 35.25 13.82Q35.24 13.91 35.25 14.01Q35.26 14.11 35.29 14.2Q35.32 14.29 35.37 14.39Q35.42 14.48 35.48 14.56Q35.54 14.63 35.62 14.69Q35.69 14.75 35.78 14.8Q35.87 14.85 35.98 14.88L36.17 14.94L36.18 14.92Q36.19 14.92 36.2 14.93Q36.3 14.93 36.39 14.92Q36.49 14.91 36.58 14.88Q36.67 14.85 36.77 14.8Q36.86 14.75 36.94 14.69Q37.01 14.63 37.07 14.55Q37.14 14.47 37.18 14.39Q37.23 14.29 37.26 14.19Q37.45 13.56 37.73 12.96Q38.08 12.21 38.56 11.53Q38.93 11.01 39.36 10.55Q39.92 9.95 40.59 9.45Q41.26 8.95 41.98 8.59Q42.56 8.3 43.17 8.09Q43.96 7.83 44.77 7.71Q45.43 7.61 46.1 7.61Q46.21 7.61 46.32 7.59Q46.41 7.57 46.5 7.53Q46.59 7.49 46.66 7.44Q46.75 7.38 46.82 7.31Q46.9 7.23 46.96 7.15Q47.01 7.07 47.05 6.98Q47.08 6.89 47.1 6.8Q47.13 6.69 47.13 6.58Q47.13 6.47 47.1 6.36Q47.08 6.27 47.05 6.18Q47.01 6.09 46.96 6.01Q46.9 5.92 46.82 5.85Q46.75 5.77 46.66 5.72Q46.59 5.67 46.5 5.63Q46.41 5.59 46.32 5.57Q46.21 5.55 46.1 5.55Q44.98 5.55 43.91 5.76Q43.16 5.9 42.44 6.15Q41.66 6.42 40.93 6.79Q40.07 7.24 39.29 7.83Q38.57 8.38 37.96 9.02Q37.35 9.65 36.84 10.38Q36.27 11.19 35.86 12.07ZM36.07 14.6C36.46 14.71 36.86 14.49 36.98 14.1C38.17 10.1 41.92 7.31 46.1 7.31C46.5 7.31 46.83 6.98 46.83 6.58C46.83 6.17 46.5 5.85 46.1 5.85C41.11 5.85 36.92 9.17 35.57 13.69C35.46 14.07 35.68 14.48 36.07 14.6L36.07 14.6Z" fill="#F9FFF9" fill-opacity="1.000000" fill-rule="evenodd"/>
	<path id="Vector" d="M56.34 42.43L51.95 42.43C51.54 42.43 51.22 42.11 51.22 41.7C51.22 41.3 51.54 40.97 51.95 40.97L56.34 40.97C62.39 40.97 67.31 36.05 67.31 29.99C67.31 23.94 62.39 19.02 56.34 19.02L56.23 19.02C56.02 19.02 55.82 18.93 55.68 18.77C55.54 18.61 55.48 18.39 55.51 18.18C55.57 17.73 55.61 17.27 55.61 16.82C55.61 11.58 51.34 7.31 46.09 7.31C44.05 7.31 42.11 7.95 40.47 9.15C40.11 9.42 39.59 9.3 39.39 8.91C34.74 0.05 22.6 -1.13 16.3 6.57C13.65 9.81 12.61 14.03 13.44 18.14C13.54 18.6 13.19 19.02 12.73 19.02L12.43 19.02C6.38 19.02 1.46 23.94 1.46 29.99C1.46 36.05 6.38 40.97 12.43 40.97L16.82 40.97C17.23 40.97 17.56 41.3 17.56 41.7C17.56 42.11 17.23 42.43 16.82 42.43L12.43 42.43C5.58 42.43 0 36.85 0 29.99C0 23.33 5.27 17.87 11.86 17.57C11.24 13.3 12.43 9 15.17 5.64C21.91 -2.6 34.82 -1.68 40.28 7.51C42.02 6.42 44.02 5.85 46.09 5.85C52.45 5.85 57.48 11.26 57.04 17.58C63.58 17.94 68.78 23.37 68.78 29.99C68.78 36.85 63.2 42.43 56.34 42.43L56.34 42.43Z" fill="#483EA8" fill-opacity="1.000000" fill-rule="nonzero"/>
	<path id="Vector" d="M34.29 59.58C24.2 59.58 16 51.38 16 41.29C16 31.2 24.2 23 34.29 23C44.38 23 52.58 31.2 52.58 41.29C52.58 51.38 44.38 59.58 34.29 59.58ZM34.29 24.46C25.01 24.46 17.46 32.01 17.46 41.29C17.46 50.57 25.01 58.12 34.29 58.12C43.57 58.12 51.12 50.57 51.12 41.29C51.12 32.01 43.57 24.46 34.29 24.46Z" fill="#483EA8" fill-opacity="1.000000" fill-rule="nonzero"/>
	<path id="Vector" d="M15.88 38.69Q15.7 39.98 15.7 41.29Q15.7 42.6 15.88 43.89Q15.96 44.46 16.07 45.03Q16.25 45.9 16.51 46.74Q16.79 47.64 17.16 48.52Q17.45 49.2 17.79 49.86Q18.28 50.79 18.87 51.68Q19.33 52.35 19.84 52.98Q20.46 53.74 21.15 54.43Q21.84 55.12 22.6 55.74Q23.23 56.25 23.9 56.7Q24.79 57.3 25.73 57.79Q26.38 58.13 27.06 58.42Q27.93 58.79 28.83 59.07Q29.68 59.33 30.55 59.5Q31.11 59.62 31.68 59.7Q32.97 59.88 34.29 59.88Q35.6 59.88 36.9 59.7Q37.47 59.62 38.03 59.5Q38.9 59.33 39.74 59.07Q40.64 58.79 41.52 58.42Q42.2 58.13 42.86 57.79Q43.79 57.3 44.68 56.7Q45.36 56.24 45.99 55.73Q46.74 55.12 47.43 54.43Q48.12 53.74 48.74 52.98Q49.25 52.35 49.7 51.68Q50.3 50.79 50.79 49.85Q51.13 49.2 51.42 48.52Q51.79 47.65 52.07 46.74Q52.33 45.9 52.5 45.03Q52.62 44.47 52.7 43.9Q52.88 42.61 52.88 41.29Q52.88 39.98 52.7 38.69Q52.62 38.12 52.5 37.55Q52.33 36.68 52.07 35.84Q51.79 34.94 51.42 34.06Q51.13 33.38 50.79 32.72Q50.3 31.78 49.7 30.9Q49.25 30.23 48.74 29.6Q48.12 28.84 47.43 28.15Q46.74 27.46 45.98 26.84Q45.35 26.33 44.68 25.88Q43.79 25.28 42.85 24.79Q42.2 24.45 41.52 24.16Q40.64 23.79 39.74 23.51Q38.9 23.25 38.03 23.07Q37.46 22.96 36.89 22.88Q35.6 22.7 34.29 22.7Q32.98 22.7 31.69 22.88Q31.11 22.96 30.55 23.07Q29.68 23.25 28.84 23.51Q27.93 23.79 27.06 24.16Q26.38 24.45 25.72 24.79Q24.78 25.28 23.9 25.88Q23.23 26.33 22.6 26.84Q21.84 27.45 21.15 28.15Q20.46 28.84 19.84 29.59Q19.33 30.22 18.87 30.9Q18.28 31.78 17.79 32.72Q17.45 33.38 17.16 34.06Q16.79 34.93 16.51 35.84Q16.25 36.68 16.07 37.55Q15.96 38.11 15.88 38.69ZM34.29 59.58C24.2 59.58 16 51.38 16 41.29C16 31.2 24.2 23 34.29 23C44.38 23 52.58 31.2 52.58 41.29C52.58 51.38 44.38 59.58 34.29 59.58ZM34.29 24.46C25.01 24.46 17.46 32.01 17.46 41.29C17.46 50.57 25.01 58.12 34.29 58.12C43.57 58.12 51.12 50.57 51.12 41.29C51.12 32.01 43.57 24.46 34.29 24.46ZM17.92 43.62Q17.76 42.47 17.76 41.29Q17.76 40.11 17.92 38.95Q17.99 38.46 18.1 37.96Q18.25 37.19 18.48 36.45Q18.73 35.64 19.06 34.86Q19.31 34.26 19.62 33.68Q20.05 32.84 20.59 32.05Q20.99 31.46 21.44 30.9Q21.99 30.22 22.61 29.61Q23.22 28.99 23.9 28.44Q24.46 27.99 25.05 27.59Q25.84 27.05 26.68 26.61Q27.26 26.31 27.86 26.06Q28.64 25.73 29.45 25.48Q30.19 25.25 30.96 25.1Q31.46 24.99 31.95 24.92Q33.11 24.76 34.29 24.76Q35.47 24.76 36.62 24.92Q37.12 24.99 37.62 25.1Q38.38 25.25 39.13 25.48Q39.94 25.73 40.72 26.06Q41.32 26.31 41.89 26.61Q42.73 27.05 43.52 27.59Q44.12 27.99 44.68 28.44Q45.35 28.99 45.97 29.61Q46.59 30.22 47.13 30.89Q47.59 31.45 47.99 32.05Q48.53 32.84 48.96 33.69Q49.26 34.26 49.52 34.86Q49.85 35.64 50.1 36.45Q50.32 37.2 50.48 37.96Q50.58 38.46 50.65 38.95Q50.82 40.11 50.82 41.29Q50.82 42.47 50.65 43.62Q50.58 44.12 50.48 44.62Q50.32 45.39 50.09 46.14Q49.85 46.94 49.52 47.72Q49.26 48.32 48.96 48.9Q48.52 49.74 47.99 50.52Q47.59 51.12 47.13 51.68Q46.59 52.35 45.97 52.97Q45.36 53.59 44.68 54.13Q44.12 54.59 43.52 54.99Q42.74 55.52 41.9 55.96Q41.32 56.26 40.72 56.52Q39.94 56.85 39.13 57.09Q38.39 57.32 37.62 57.48Q37.12 57.58 36.62 57.65Q35.47 57.82 34.29 57.82Q33.11 57.82 31.95 57.65Q31.45 57.58 30.96 57.48Q30.19 57.32 29.45 57.1Q28.64 56.85 27.86 56.52Q27.26 56.26 26.68 55.96Q25.84 55.53 25.05 54.99Q24.46 54.59 23.9 54.14Q23.22 53.59 22.61 52.97Q21.99 52.35 21.44 51.68Q20.99 51.12 20.59 50.52Q20.05 49.73 19.62 48.9Q19.31 48.32 19.06 47.72Q18.73 46.94 18.48 46.13Q18.25 45.38 18.1 44.62Q17.99 44.12 17.92 43.62Z" fill="#F9FFF9" fill-opacity="1.000000" fill-rule="evenodd"/>
	<path id="Vector" d="M34.62 49.19C34.33 49.19 34.09 48.95 34.09 48.65L34.09 34.72C34.09 34.43 34.33 34.19 34.62 34.19C34.92 34.19 35.16 34.43 35.16 34.72L35.16 48.65C35.16 48.95 34.92 49.19 34.62 49.19Z" fill="#483EA8" fill-opacity="1.000000" fill-rule="nonzero"/>
	<path id="Vector" d="M33.79 34.72L33.79 48.65Q33.79 48.74 33.81 48.83Q33.82 48.91 33.85 48.98Q33.88 49.05 33.93 49.11Q33.97 49.18 34.03 49.24Q34.09 49.3 34.16 49.35Q34.23 49.39 34.3 49.42Q34.37 49.45 34.45 49.47Q34.53 49.49 34.62 49.49Q34.71 49.49 34.8 49.47Q34.88 49.45 34.95 49.42Q35.02 49.39 35.08 49.35Q35.15 49.3 35.21 49.24Q35.27 49.18 35.32 49.11Q35.36 49.05 35.39 48.98Q35.42 48.91 35.44 48.83Q35.46 48.74 35.46 48.65L35.46 34.72Q35.46 34.63 35.44 34.55Q35.42 34.47 35.39 34.4Q35.36 34.33 35.32 34.26Q35.27 34.19 35.21 34.13Q35.15 34.07 35.08 34.03Q35.02 33.98 34.95 33.95Q34.88 33.92 34.8 33.91Q34.71 33.89 34.62 33.89Q34.53 33.89 34.45 33.91Q34.37 33.92 34.3 33.95Q34.23 33.98 34.16 34.03Q34.09 34.07 34.03 34.13Q33.97 34.19 33.93 34.26Q33.88 34.33 33.85 34.4Q33.82 34.47 33.81 34.55Q33.79 34.63 33.79 34.72ZM34.09 48.65C34.09 48.95 34.33 49.19 34.62 49.19C34.92 49.19 35.16 48.95 35.16 48.65L35.16 34.72C35.16 34.43 34.92 34.19 34.62 34.19C34.33 34.19 34.09 34.43 34.09 34.72L34.09 48.65Z" fill="#483EA8" fill-opacity="1.000000" fill-rule="evenodd"/>
	<path id="Vector" d="M38.91 39.55C38.77 39.55 38.63 39.49 38.53 39.39L34.62 35.48L30.72 39.39C30.51 39.6 30.17 39.6 29.96 39.39C29.75 39.18 29.75 38.84 29.96 38.63L34.24 34.35C34.45 34.14 34.79 34.14 35 34.35L39.29 38.63C39.5 38.84 39.5 39.18 39.29 39.39C39.18 39.49 39.05 39.55 38.91 39.55L38.91 39.55Z" fill="#483EA8" fill-opacity="1.000000" fill-rule="nonzero"/>
	<path id="Vector" d="M34.62 35.91L38.32 39.6Q38.38 39.67 38.45 39.71Q38.52 39.76 38.59 39.79Q38.67 39.82 38.74 39.83Q38.83 39.85 38.91 39.85L38.91 39.85Q38.99 39.85 39.08 39.83Q39.15 39.81 39.22 39.79Q39.3 39.75 39.37 39.71Q39.44 39.66 39.5 39.6Q39.56 39.54 39.61 39.46Q39.65 39.4 39.68 39.33Q39.71 39.25 39.73 39.18Q39.74 39.1 39.74 39.01Q39.74 38.93 39.73 38.85Q39.71 38.77 39.68 38.7Q39.65 38.62 39.61 38.56Q39.56 38.48 39.5 38.42L35.21 34.13Q35.15 34.07 35.08 34.02Q35.01 33.98 34.94 33.95Q34.86 33.92 34.79 33.91Q34.71 33.89 34.62 33.89Q34.54 33.89 34.46 33.91Q34.38 33.92 34.31 33.95Q34.23 33.98 34.17 34.02Q34.09 34.07 34.03 34.13L29.75 38.42Q29.68 38.48 29.63 38.56Q29.59 38.62 29.56 38.7Q29.53 38.77 29.52 38.84Q29.5 38.93 29.5 39.01Q29.5 39.1 29.52 39.18Q29.53 39.25 29.56 39.33Q29.59 39.4 29.63 39.46Q29.68 39.54 29.75 39.6Q29.81 39.67 29.88 39.71Q29.95 39.76 30.02 39.79Q30.1 39.82 30.17 39.83Q30.25 39.85 30.34 39.85Q30.42 39.85 30.5 39.83Q30.58 39.82 30.65 39.79Q30.73 39.76 30.79 39.71Q30.87 39.66 30.93 39.6L34.62 35.91ZM34.84 35.7L38.53 39.39C38.63 39.49 38.77 39.55 38.91 39.55L38.91 39.55C39.05 39.55 39.18 39.49 39.29 39.39C39.5 39.18 39.5 38.84 39.29 38.63L35 34.35C34.79 34.14 34.45 34.14 34.24 34.35L29.96 38.63C29.75 38.84 29.75 39.18 29.96 39.39C30.17 39.6 30.51 39.6 30.72 39.39L34.41 35.7L34.62 35.48L34.84 35.7Z" fill="#483EA8" fill-opacity="1.000000" fill-rule="evenodd"/>
</svg>
