<svg width="16.000000" height="16.000000" viewBox="0 0 16 16" fill="none" xmlns="http://www.w3.org/2000/svg" xmlns:xlink="http://www.w3.org/1999/xlink">
	<desc>
			Created with Pixso.
	</desc>
	<defs/>
	<path id="Cross icon" d="M8 16C5.87 16 3.84 15.15 2.34 13.65C0.84 12.15 0 10.12 0 8C0 5.87 0.84 3.84 2.34 2.34C3.84 0.84 5.87 0 8 0C10.12 0 12.15 0.84 13.65 2.34C15.15 3.84 16 5.87 16 8C15.99 10.12 15.15 12.15 13.65 13.65C12.15 15.15 10.12 15.99 8 16ZM11.08 5.94L11.08 5.94C11.22 5.8 11.3 5.62 11.3 5.42C11.3 5.23 11.23 5.04 11.09 4.9C10.95 4.76 10.76 4.69 10.57 4.69C10.37 4.69 10.19 4.77 10.05 4.91L8 6.97L5.94 4.91C5.75 4.73 5.49 4.66 5.24 4.73C4.99 4.8 4.8 4.99 4.73 5.24C4.66 5.49 4.73 5.75 4.91 5.94L6.97 7.99L4.91 10.05C4.77 10.19 4.69 10.37 4.69 10.57C4.69 10.76 4.76 10.95 4.9 11.09C5.04 11.23 5.23 11.3 5.42 11.3C5.62 11.3 5.8 11.22 5.94 11.08L8 9.02L10.05 11.08C10.19 11.22 10.37 11.3 10.57 11.3C10.76 11.3 10.95 11.23 11.09 11.09C11.23 10.95 11.3 10.76 11.3 10.57C11.3 10.37 11.22 10.19 11.08 10.05L9.02 7.99L11.08 5.94Z" fill="#E41D1D" fill-opacity="1.000000" fill-rule="nonzero"/>
</svg>
