<svg width="16.000000" height="16.000000" viewBox="0 0 16 16" fill="none" xmlns="http://www.w3.org/2000/svg" xmlns:xlink="http://www.w3.org/1999/xlink">
	<desc>
			Created with Pixso.
	</desc>
	<defs/>
	<circle id="Ellipse 5" cx="8.000000" cy="8.000000" r="8.000000" fill="#FFF3F3" fill-opacity="1.000000"/>
	<path id="Vector" d="M11.47 5.14L10.47 5.14C10.46 5.14 10.45 5.13 10.43 5.13L9.37 5.13L9.37 4.25C9.37 4.18 9.34 4.12 9.29 4.07C9.25 4.02 9.18 4 9.12 4L6.6 4C6.53 4 6.47 4.02 6.42 4.07C6.37 4.12 6.35 4.18 6.35 4.25L6.35 5.13L5.29 5.13C5.28 5.13 5.26 5.14 5.25 5.14L4.25 5.14C4.16 5.14 4.07 5.19 4.03 5.27C3.98 5.35 3.98 5.44 4.03 5.52C4.07 5.6 4.16 5.65 4.25 5.65L5.06 5.65L5.72 11.77C5.73 11.83 5.76 11.89 5.8 11.93C5.85 11.97 5.91 11.99 5.97 12L9.75 12C9.81 11.99 9.87 11.97 9.92 11.93C9.96 11.89 9.99 11.83 10 11.77L10.66 5.66L11.47 5.66C11.56 5.66 11.65 5.61 11.69 5.53C11.74 5.45 11.74 5.35 11.69 5.28C11.65 5.2 11.56 5.15 11.47 5.15L11.47 5.14ZM6.86 4.5L8.86 4.5L8.86 5.13L6.86 5.13L6.86 4.5ZM9.52 11.48L6.2 11.48L5.57 5.66L10.15 5.66L9.52 11.48Z" fill="#E41D1D" fill-opacity="1.000000" fill-rule="nonzero"/>
	<path id="Vector" d="M7.86 10.89C7.93 10.89 7.99 10.86 8.04 10.82C8.09 10.77 8.11 10.71 8.11 10.64L8.11 6.5C8.11 6.41 8.07 6.33 7.99 6.28C7.91 6.24 7.81 6.24 7.73 6.28C7.66 6.33 7.61 6.41 7.61 6.5L7.61 10.64C7.61 10.71 7.63 10.77 7.68 10.82C7.73 10.86 7.79 10.89 7.86 10.89L7.86 10.89Z" fill="#E41D1D" fill-opacity="1.000000" fill-rule="nonzero"/>
	<path id="Vector" d="M6.86 10.89L6.87 10.89C6.94 10.89 7 10.86 7.05 10.81C7.09 10.76 7.12 10.69 7.12 10.63L6.96 6.49L6.96 6.49C6.96 6.42 6.93 6.36 6.88 6.31C6.83 6.27 6.77 6.24 6.7 6.25C6.63 6.25 6.57 6.28 6.52 6.33C6.48 6.38 6.45 6.44 6.46 6.51L6.61 10.65C6.61 10.71 6.64 10.77 6.69 10.82C6.73 10.86 6.8 10.89 6.86 10.89L6.86 10.89Z" fill="#E41D1D" fill-opacity="1.000000" fill-rule="nonzero"/>
	<path id="Vector" d="M8.85 10.89L8.86 10.89C8.92 10.89 8.99 10.87 9.04 10.82C9.09 10.77 9.12 10.71 9.12 10.64L9.27 6.51L9.27 6.51C9.27 6.44 9.25 6.38 9.2 6.33C9.16 6.28 9.1 6.25 9.03 6.25C8.96 6.24 8.89 6.26 8.84 6.31C8.79 6.35 8.76 6.42 8.76 6.49L8.6 10.62L8.6 10.62C8.6 10.69 8.62 10.76 8.67 10.81C8.72 10.86 8.78 10.89 8.85 10.89L8.85 10.89Z" fill="#E41D1D" fill-opacity="1.000000" fill-rule="nonzero"/>
</svg>
